<mxfile host="app.diagrams.net" modified="2022-11-26T04:49:18.486Z" agent="5.0 (Windows NT 6.1; Win64; x64) AppleWebKit/537.36 (KHTML, like Gecko) Chrome/100.0.4896.127 Safari/537.36" etag="EqJRVR3wm1OjKFcGxRMJ" version="20.5.2" type="github">
  <diagram id="BoCD0NbdeXS_dJ5qISnO" name="第 1 页">
    <mxGraphModel dx="1422" dy="800" grid="1" gridSize="10" guides="1" tooltips="1" connect="1" arrows="1" fold="1" page="1" pageScale="1" pageWidth="400000" pageHeight="300000" math="0" shadow="0">
      <root>
        <mxCell id="0" />
        <mxCell id="1" parent="0" />
        <mxCell id="5T_cPl9XXUpTKbzgcnDv-5" style="edgeStyle=orthogonalEdgeStyle;rounded=0;orthogonalLoop=1;jettySize=auto;html=1;exitX=1;exitY=0.5;exitDx=0;exitDy=0;" edge="1" parent="1" source="5T_cPl9XXUpTKbzgcnDv-1" target="5T_cPl9XXUpTKbzgcnDv-4">
          <mxGeometry relative="1" as="geometry" />
        </mxCell>
        <mxCell id="5T_cPl9XXUpTKbzgcnDv-1" value="规律" style="rounded=1;whiteSpace=wrap;html=1;" vertex="1" parent="1">
          <mxGeometry x="780" y="290" width="120" height="60" as="geometry" />
        </mxCell>
        <mxCell id="5T_cPl9XXUpTKbzgcnDv-3" style="edgeStyle=orthogonalEdgeStyle;rounded=0;orthogonalLoop=1;jettySize=auto;html=1;exitX=0.5;exitY=0;exitDx=0;exitDy=0;entryX=0.5;entryY=1;entryDx=0;entryDy=0;" edge="1" parent="1" source="5T_cPl9XXUpTKbzgcnDv-2" target="5T_cPl9XXUpTKbzgcnDv-1">
          <mxGeometry relative="1" as="geometry" />
        </mxCell>
        <mxCell id="5T_cPl9XXUpTKbzgcnDv-2" value="抽象" style="rounded=1;whiteSpace=wrap;html=1;" vertex="1" parent="1">
          <mxGeometry x="780" y="450" width="120" height="60" as="geometry" />
        </mxCell>
        <mxCell id="5T_cPl9XXUpTKbzgcnDv-13" style="edgeStyle=orthogonalEdgeStyle;rounded=0;orthogonalLoop=1;jettySize=auto;html=1;exitX=0.5;exitY=1;exitDx=0;exitDy=0;entryX=0.5;entryY=1;entryDx=0;entryDy=0;" edge="1" parent="1" source="5T_cPl9XXUpTKbzgcnDv-4" target="5T_cPl9XXUpTKbzgcnDv-6">
          <mxGeometry relative="1" as="geometry">
            <Array as="points">
              <mxPoint x="1110" y="640" />
              <mxPoint x="270" y="640" />
            </Array>
          </mxGeometry>
        </mxCell>
        <mxCell id="5T_cPl9XXUpTKbzgcnDv-19" style="edgeStyle=orthogonalEdgeStyle;rounded=0;orthogonalLoop=1;jettySize=auto;html=1;exitX=0.5;exitY=0;exitDx=0;exitDy=0;entryX=0.5;entryY=0;entryDx=0;entryDy=0;" edge="1" parent="1" source="5T_cPl9XXUpTKbzgcnDv-4" target="5T_cPl9XXUpTKbzgcnDv-7">
          <mxGeometry relative="1" as="geometry">
            <Array as="points">
              <mxPoint x="1110" y="180" />
              <mxPoint x="460" y="180" />
            </Array>
          </mxGeometry>
        </mxCell>
        <mxCell id="5T_cPl9XXUpTKbzgcnDv-30" style="edgeStyle=orthogonalEdgeStyle;rounded=0;orthogonalLoop=1;jettySize=auto;html=1;exitX=1;exitY=0.5;exitDx=0;exitDy=0;entryX=0;entryY=0.5;entryDx=0;entryDy=0;" edge="1" parent="1" source="5T_cPl9XXUpTKbzgcnDv-4" target="5T_cPl9XXUpTKbzgcnDv-12">
          <mxGeometry relative="1" as="geometry" />
        </mxCell>
        <mxCell id="5T_cPl9XXUpTKbzgcnDv-31" style="edgeStyle=orthogonalEdgeStyle;rounded=0;orthogonalLoop=1;jettySize=auto;html=1;exitX=1;exitY=0.5;exitDx=0;exitDy=0;" edge="1" parent="1" source="5T_cPl9XXUpTKbzgcnDv-4" target="5T_cPl9XXUpTKbzgcnDv-27">
          <mxGeometry relative="1" as="geometry" />
        </mxCell>
        <mxCell id="5T_cPl9XXUpTKbzgcnDv-32" style="edgeStyle=orthogonalEdgeStyle;rounded=0;orthogonalLoop=1;jettySize=auto;html=1;exitX=1;exitY=0.5;exitDx=0;exitDy=0;" edge="1" parent="1" source="5T_cPl9XXUpTKbzgcnDv-4" target="5T_cPl9XXUpTKbzgcnDv-28">
          <mxGeometry relative="1" as="geometry" />
        </mxCell>
        <mxCell id="5T_cPl9XXUpTKbzgcnDv-33" style="edgeStyle=orthogonalEdgeStyle;rounded=0;orthogonalLoop=1;jettySize=auto;html=1;exitX=1;exitY=0.5;exitDx=0;exitDy=0;entryX=0;entryY=0.5;entryDx=0;entryDy=0;" edge="1" parent="1" source="5T_cPl9XXUpTKbzgcnDv-4" target="5T_cPl9XXUpTKbzgcnDv-29">
          <mxGeometry relative="1" as="geometry" />
        </mxCell>
        <mxCell id="5T_cPl9XXUpTKbzgcnDv-4" value="模型" style="rounded=1;whiteSpace=wrap;html=1;" vertex="1" parent="1">
          <mxGeometry x="1050" y="290" width="120" height="60" as="geometry" />
        </mxCell>
        <mxCell id="5T_cPl9XXUpTKbzgcnDv-9" style="edgeStyle=orthogonalEdgeStyle;rounded=0;orthogonalLoop=1;jettySize=auto;html=1;exitX=1;exitY=0.5;exitDx=0;exitDy=0;" edge="1" parent="1" source="5T_cPl9XXUpTKbzgcnDv-6" target="5T_cPl9XXUpTKbzgcnDv-7">
          <mxGeometry relative="1" as="geometry" />
        </mxCell>
        <mxCell id="5T_cPl9XXUpTKbzgcnDv-6" value="头脑风暴" style="rounded=1;whiteSpace=wrap;html=1;" vertex="1" parent="1">
          <mxGeometry x="210" y="290" width="120" height="60" as="geometry" />
        </mxCell>
        <mxCell id="5T_cPl9XXUpTKbzgcnDv-10" style="edgeStyle=orthogonalEdgeStyle;rounded=0;orthogonalLoop=1;jettySize=auto;html=1;exitX=0.5;exitY=1;exitDx=0;exitDy=0;entryX=0;entryY=0.5;entryDx=0;entryDy=0;" edge="1" parent="1" source="5T_cPl9XXUpTKbzgcnDv-7" target="5T_cPl9XXUpTKbzgcnDv-8">
          <mxGeometry relative="1" as="geometry" />
        </mxCell>
        <mxCell id="5T_cPl9XXUpTKbzgcnDv-7" value="实践" style="rounded=1;whiteSpace=wrap;html=1;" vertex="1" parent="1">
          <mxGeometry x="400" y="290" width="120" height="60" as="geometry" />
        </mxCell>
        <mxCell id="5T_cPl9XXUpTKbzgcnDv-11" style="edgeStyle=orthogonalEdgeStyle;rounded=0;orthogonalLoop=1;jettySize=auto;html=1;exitX=1;exitY=0.5;exitDx=0;exitDy=0;entryX=0;entryY=0.5;entryDx=0;entryDy=0;" edge="1" parent="1" source="5T_cPl9XXUpTKbzgcnDv-8" target="5T_cPl9XXUpTKbzgcnDv-2">
          <mxGeometry relative="1" as="geometry" />
        </mxCell>
        <mxCell id="5T_cPl9XXUpTKbzgcnDv-8" value="思考" style="rounded=1;whiteSpace=wrap;html=1;" vertex="1" parent="1">
          <mxGeometry x="540" y="450" width="120" height="60" as="geometry" />
        </mxCell>
        <mxCell id="5T_cPl9XXUpTKbzgcnDv-12" value="meta与编排" style="ellipse;whiteSpace=wrap;html=1;" vertex="1" parent="1">
          <mxGeometry x="1250" y="230" width="90" height="40" as="geometry" />
        </mxCell>
        <mxCell id="5T_cPl9XXUpTKbzgcnDv-15" style="edgeStyle=orthogonalEdgeStyle;rounded=0;orthogonalLoop=1;jettySize=auto;html=1;exitX=1;exitY=0.5;exitDx=0;exitDy=0;entryX=0;entryY=0.5;entryDx=0;entryDy=0;" edge="1" parent="1" source="5T_cPl9XXUpTKbzgcnDv-14" target="5T_cPl9XXUpTKbzgcnDv-6">
          <mxGeometry relative="1" as="geometry" />
        </mxCell>
        <mxCell id="5T_cPl9XXUpTKbzgcnDv-14" value="事件" style="rounded=1;whiteSpace=wrap;html=1;" vertex="1" parent="1">
          <mxGeometry x="40" y="290" width="120" height="60" as="geometry" />
        </mxCell>
        <mxCell id="5T_cPl9XXUpTKbzgcnDv-20" value="复盘" style="rounded=1;whiteSpace=wrap;html=1;" vertex="1" parent="1">
          <mxGeometry x="720" y="150" width="120" height="60" as="geometry" />
        </mxCell>
        <mxCell id="5T_cPl9XXUpTKbzgcnDv-23" value="迁移/匹配" style="rounded=1;whiteSpace=wrap;html=1;" vertex="1" parent="1">
          <mxGeometry x="600" y="610" width="120" height="60" as="geometry" />
        </mxCell>
        <mxCell id="5T_cPl9XXUpTKbzgcnDv-27" value="动与静" style="ellipse;whiteSpace=wrap;html=1;" vertex="1" parent="1">
          <mxGeometry x="1250" y="290" width="95" height="40" as="geometry" />
        </mxCell>
        <mxCell id="5T_cPl9XXUpTKbzgcnDv-28" value="变与不变" style="ellipse;whiteSpace=wrap;html=1;" vertex="1" parent="1">
          <mxGeometry x="1250" y="350" width="100" height="40" as="geometry" />
        </mxCell>
        <mxCell id="5T_cPl9XXUpTKbzgcnDv-29" value="时间" style="ellipse;whiteSpace=wrap;html=1;" vertex="1" parent="1">
          <mxGeometry x="1250" y="410" width="100" height="40" as="geometry" />
        </mxCell>
      </root>
    </mxGraphModel>
  </diagram>
</mxfile>
